<?xml version="1.0" encoding="UTF-8" standalone="no"?>
<!-- Created with Inkscape (http://www.inkscape.org/) -->

<svg
   width="39.658001mm"
   height="39.658379mm"
   viewBox="0 0 41.657603 41.658"
   version="1.1"
   id="svg5"
   xml:space="preserve"
   xmlns="http://www.w3.org/2000/svg"
   xmlns:svg="http://www.w3.org/2000/svg"><defs
     id="defs2" /><g
     id="layer1"
     transform="translate(-81.809418,-44.333778)"><path
       style="fill:#008000;stroke:#093a0b;stroke-width:0.5"
       d="m 113.71251,83.124184 0.52916,-0.51922 0.0896,-2.74797 0.0896,-2.74798 2.74797,-0.0896 2.74797,-0.0896 0.58882,-0.58943 0.58883,-0.58944 v -0.9378 -0.9378 l -0.58883,-0.58943 -0.58882,-0.58943 -2.77138,-0.0902 -2.77139,-0.0902 -0.004,-2.42331 -0.004,-2.42332 -0.33458,-0.66146 -0.33457,-0.66145 -0.70699,-0.339 -0.707,-0.339 -0.6995,0.17556 -0.6995,0.17556 -0.503,0.8249 -0.503,0.82489 -10e-4,2.4474 -0.001,2.44739 -2.44739,0.001 -2.4474,10e-4 -0.82489,0.503 -0.8249,0.50301 -0.17556,0.6995 -0.17557,0.6995 0.339,0.70699 0.339,0.70699 0.66146,0.33458 0.66146,0.33457 2.4474,0.004 2.44739,0.004 0.004,2.44739 0.004,2.4474 0.33204,0.65624 0.33205,0.65625 0.65624,0.33843 0.65625,0.33844 0.66145,-0.15147 0.66146,-0.15146 0.52917,-0.51923 z"
       id="path310" /><path
       style="fill:#008000;stroke:#093a0b;stroke-width:0.5;stroke-opacity:1"
       d="m 99.273502,84.302554 0.54837,-0.69714 v -0.60413 -0.60414 l -0.16342,-0.42587 -0.16342,-0.42586 -0.56418,-0.32338 -0.56419,-0.32338 -4.23333,-0.13229 -4.23333,-0.13229 -0.82728,-0.59011 -0.82728,-0.5901 -0.42949,-0.90509 -0.4295,-0.90509 v -12.22316 -12.22315 l 0.4295,-0.90509 0.42949,-0.90509 0.82728,-0.59011 0.82728,-0.5901 12.511928,-0.0736 12.51194,-0.0736 0.92088,0.43699 0.92089,0.43699 0.5901,0.82728 0.5901,0.82727 0.14168,4.23334 0.14168,4.23333 0.22018,0.47037 0.22017,0.47037 0.48065,0.25723 0.48064,0.25724 h 0.64317 0.64318 l 0.69714,-0.54837 0.69714,-0.54837 v -4.46879 -4.46879 l -0.55201,-1.47538 -0.55201,-1.47537 -1.28983,-1.28983 -1.28983,-1.28983 -1.47538,-0.55201 -1.47538,-0.55201 H 102.7323 89.787552 l -1.47537,0.55201 -1.47538,0.55201 -1.28983,1.28983 -1.28983,1.28983 -0.55201,1.47537 -0.55201,1.47538 v 12.94473 12.94474 l 0.55201,1.47537 0.55201,1.47538 1.29068,1.29068 1.29067,1.29068 1.39846,0.53737 1.39846,0.53738 4.54486,0.0138 4.54486,0.0138 0.54837,-0.69714 z"
       id="path306" /></g></svg>
