<?xml version="1.0" encoding="UTF-8" standalone="no"?>
<!-- Created with Inkscape (http://www.inkscape.org/) -->

<svg
   version="1.1"
   id="svg2"
   width="217.81969"
   height="213.42938"
   viewBox="0 0 217.81969 213.42938"
   sodipodi:docname="addnew_colour2.svg"
   inkscape:version="1.2.2 (732a01da63, 2022-12-09)"
   xmlns:inkscape="http://www.inkscape.org/namespaces/inkscape"
   xmlns:sodipodi="http://sodipodi.sourceforge.net/DTD/sodipodi-0.dtd"
   xmlns:xlink="http://www.w3.org/1999/xlink"
   xmlns="http://www.w3.org/2000/svg"
   xmlns:svg="http://www.w3.org/2000/svg">
  <sodipodi:namedview
     id="namedview11"
     pagecolor="#ffffff"
     bordercolor="#000000"
     borderopacity="0.25"
     inkscape:showpageshadow="2"
     inkscape:pageopacity="0.0"
     inkscape:pagecheckerboard="0"
     inkscape:deskcolor="#d1d1d1"
     showgrid="false"
     inkscape:zoom="2.0194033"
     inkscape:cx="149.54913"
     inkscape:cy="90.125632"
     inkscape:window-width="1680"
     inkscape:window-height="987"
     inkscape:window-x="3832"
     inkscape:window-y="24"
     inkscape:window-maximized="1"
     inkscape:current-layer="svg2" />
  <defs
     id="defs6">
    <linearGradient
       id="linearGradient580">
      <stop
         style="stop-color:#008000;stop-opacity:1;"
         offset="0"
         id="stop576" />
      <stop
         style="stop-color:#008000;stop-opacity:0;"
         offset="1"
         id="stop578" />
    </linearGradient>
    <radialGradient
       xlink:href="#linearGradient580"
       id="radialGradient582"
       cx="-325.53113"
       cy="-271.34848"
       fx="-325.53113"
       fy="-271.34848"
       r="108.90984"
       gradientTransform="matrix(0.67148688,-0.69261525,0.78502119,0.76107803,540.6299,90.806939)"
       gradientUnits="userSpaceOnUse" />
    <radialGradient
       xlink:href="#linearGradient580"
       id="radialGradient582-1"
       cx="-325.53113"
       cy="-271.34848"
       fx="-325.53113"
       fy="-271.34848"
       r="108.90984"
       gradientTransform="matrix(0.67148688,-0.69261525,0.78502119,0.76107803,807.33762,319.69776)"
       gradientUnits="userSpaceOnUse" />
  </defs>
  <g
     id="g401">
    <g
       id="g8"
       transform="translate(-0.55772,-1.352256)">
      <rect
         style="fill:url(#radialGradient582);fill-opacity:1;stroke:#000000;stroke-width:0.485973"
         id="rect403"
         width="217.33371"
         height="212.94341"
         x="-0.0070207198"
         y="2.1881356" />
      <path
         style="fill:#008000"
         d="m 42.788718,210.30407 c -13.01458,-3.5778 -26.575,-14.43034 -32.0734,-25.66867 -5.2269495,-10.6835 -5.5932195,-13.79216 -5.6060495,-47.58055 -0.0114,-29.92508 0.0729,-31.33479 1.98813,-33.25 2.87751,-2.87752 7.3916595,-2.58884 9.9274195,0.63486 1.98923,2.5289 2.07258,3.80839 2.07258,31.8185 0,32.7713 0.49995,36.15439 6.69519,45.30518 4.49498,6.63939 11.67643,11.94437 19.44047,14.36082 5.34397,1.66322 9.48028,1.88064 35.77912,1.88064 h 29.736592 l 2.17432,2.31445 c 2.71708,2.8922 2.79222,7.06764 0.17431,9.68555 -1.91999,1.91999 -3.27014,1.99642 -33.750002,1.91058 -22.98652,-0.0647 -33.07727,-0.45429 -36.55868,-1.41136 z m 12.981,-28.90967 c -10.14541,-2.77361 -18.51056,-11.67637 -20.6487,-21.97578 -0.75496,-3.63658 -1.01889,-20.95862 -0.81883,-53.74003 0.28528,-46.747761 0.36598,-48.526701 2.40086,-52.924541 3.07843,-6.65318 7.77583,-11.49811 14.21274,-14.65911 l 5.68161,-2.79009 h 51.500002 51.49999 l 5.6816,2.79009 c 6.43691,3.161 11.13432,8.00593 14.21274,14.65911 2.05471,4.44069 2.10566,5.79691 2.10566,56.050801 0,50.25389 -0.051,51.61011 -2.10566,56.05081 -3.07842,6.65317 -7.77583,11.49811 -14.21274,14.6591 l -5.6816,2.79009 -49.49999,0.20468 c -38.411962,0.15884 -50.581412,-0.0909 -54.327682,-1.11513 z M 160.45609,165.90696 c 1.57229,-1.03659 3.70682,-3.17112 4.74341,-4.74341 1.7824,-2.70351 1.88471,-5.54591 1.88471,-52.3587 0,-46.812791 -0.10231,-49.655191 -1.88471,-52.358701 -1.03659,-1.57229 -3.17112,-3.70682 -4.74341,-4.74341 -2.70351,-1.78239 -5.54591,-1.88471 -52.35869,-1.88471 -46.812802,0 -49.655192,0.10232 -52.358712,1.88471 -1.57228,1.03659 -3.70682,3.17112 -4.74341,4.74341 -1.78239,2.70351 -1.88471,5.54591 -1.88471,52.358701 0,46.81279 0.10232,49.65519 1.88471,52.3587 1.03659,1.57229 3.17113,3.70682 4.74341,4.74341 2.70352,1.7824 5.54591,1.88471 52.358712,1.88471 46.81278,0 49.65518,-0.10231 52.35869,-1.88471 z M 103.0974,135.80485 c -1.7037,-1.7037 -2,-3.33333 -2,-11 v -9 h -9.000002 c -10.21027,0 -13,-1.50216 -13,-7 0,-5.49784 2.78973,-7 13,-7 h 9.000002 v -9.000001 c 0,-10.21026 1.50216,-13 7,-13 5.49784,0 7,2.78974 7,13 v 9.000001 h 9 c 10.21026,0 12.99999,1.50216 12.99999,7 0,5.49784 -2.78973,7 -12.99999,7 h -9 v 9 c 0,10.21027 -1.50216,13 -7,13 -1.66667,0 -3.88889,-0.88889 -5,-2 z m 96.1743,-22.31445 c -2.13099,-2.26834 -2.17431,-2.90231 -2.17431,-31.818501 0,-33.12262 -0.48968,-36.45962 -6.6952,-45.62559 -4.49498,-6.63939 -11.67642,-11.94437 -19.44047,-14.36081 -5.33498,-1.66044 -9.47053,-1.88065 -35.31857,-1.88065 -28.10358,0 -29.38155,-0.083 -31.91089,-2.07258 -3.2237,-2.53576 -3.51238,-7.0499 -0.63486,-9.9274196 1.91521,-1.9152 3.32492,-1.99949 33.24999,-1.98813 33.78839,0.0128 36.89705,0.3791 47.58055,5.6060596 7.2523,3.54821 18.00331,14.29922 21.55153,21.55152 5.22695,10.6835 5.59322,13.79216 5.60605,47.58055 0.0114,29.925081 -0.0729,31.334791 -1.98813,33.250001 -2.69767,2.69767 -7.12918,2.55585 -9.82569,-0.31445 z"
         id="path297" />
    </g>
    <path
       style="fill:#ffffff;stroke:#000000;stroke-width:0.5"
       d="m 102.1783,134.18541 c -1.7037,-1.7037 -2,-3.33333 -2,-11 v -9 h -9 c -10.21027,0 -13,-1.50216 -13,-7 0,-5.49784 2.78973,-7 13,-7 h 9 v -9.000004 c 0,-10.21026 1.50216,-13 7,-13 5.49784,0 7,2.78974 7,13 v 9.000004 h 8.99999 c 10.21026,0 12.99999,1.50216 12.99999,7 0,5.49784 -2.78973,7 -12.99999,7 h -8.99999 v 9 c 0,10.21027 -1.50216,13 -7,13 -1.66667,0 -3.88889,-0.88889 -5,-2 z"
       id="path370" />
  </g>
</svg>
