<?xml version="1.0" encoding="UTF-8" standalone="no"?>
<!-- Created with Inkscape (http://www.inkscape.org/) -->

<svg
   width="49.741669mm"
   height="45.319206mm"
   viewBox="0 0 49.741669 45.319206"
   version="1.1"
   id="svg5"
   xml:space="preserve"
   inkscape:version="1.2.2 (732a01da63, 2022-12-09)"
   sodipodi:docname="eraser-red.svg"
   xmlns:inkscape="http://www.inkscape.org/namespaces/inkscape"
   xmlns:sodipodi="http://sodipodi.sourceforge.net/DTD/sodipodi-0.dtd"
   xmlns="http://www.w3.org/2000/svg"
   xmlns:svg="http://www.w3.org/2000/svg"><sodipodi:namedview
     id="namedview7"
     pagecolor="#ffffff"
     bordercolor="#000000"
     borderopacity="0.25"
     inkscape:showpageshadow="2"
     inkscape:pageopacity="0.0"
     inkscape:pagecheckerboard="0"
     inkscape:deskcolor="#d1d1d1"
     inkscape:document-units="mm"
     showgrid="false"
     inkscape:zoom="2.1719924"
     inkscape:cx="144.10732"
     inkscape:cy="157.45912"
     inkscape:window-width="1920"
     inkscape:window-height="1017"
     inkscape:window-x="1912"
     inkscape:window-y="-8"
     inkscape:window-maximized="1"
     inkscape:current-layer="layer1" /><defs
     id="defs2" /><g
     inkscape:label="Layer 1"
     inkscape:groupmode="layer"
     id="layer1"
     transform="translate(-66.462094,-53.921765)"><path
       id="path802"
       style="fill:#ff0000;stroke:#1a1a1a;stroke-width:0.25589"
       d="m 105.4797,54.63234 -8.668838,8.872329 -8.669325,8.871822 -1.272417,-1.282935 -1.272416,-1.28344 6.88814,-7.055385 6.888632,-7.055385 -0.315139,-0.32263 -0.31514,-0.322631 -7.010639,7.177257 -7.01064,7.177255 5.686851,5.826559 5.686853,5.82656 h 0.127439 0.127439 l 9.29517,-9.514049 9.29565,-9.513544 v -0.303414 -0.303414 l -0.31613,-0.122883 -0.31612,-0.122882 -9.29319,9.484719 -9.29319,9.484213 -1.182519,-1.210116 -1.182023,-1.210115 8.831352,-9.232887 8.83184,-9.232885 0.084,-0.234639 0.0845,-0.234641 h -0.21189 -0.2124 l -8.84863,9.061964 -8.849129,9.061961 H 92.807538 92.54772 l -2.013835,-2.073834 -2.013838,-2.073835 8.668338,-8.876879 8.668335,-8.876881 -0.18869,-0.192667 z M 83.834288,69.285209 v 0.528447 0.528951 l -0.308719,0.316057 -0.308718,0.316056 5.675491,5.814927 5.675491,5.814422 0.24747,-0.25335 0.247469,-0.253351 h 0.455421 0.455423 V 81.90116 81.704953 l -6.069664,-6.209872 z m -1.517416,1.678892 v 0.465739 0.466246 l -0.239072,0.245766 -0.238577,0.246271 5.582134,5.900389 5.582134,5.899883 0.40998,-0.364602 0.410472,-0.364602 0.316129,0.11732 0.316128,0.11732 v -0.332744 -0.332238 l -5.873071,-6.032375 -5.872578,-6.032373 h -0.197086 z m -1.517416,1.553479 v 0.316055 0.316057 l -1.44925,1.49937 -1.449251,1.498865 5.683395,5.823019 5.682901,5.822513 h 0.137317 0.137319 l 1.378121,-1.428574 1.377629,-1.428573 0.320573,0.125916 0.320574,0.125411 V 84.874618 84.561089 L 87.060774,78.539335 81.182762,72.51758 H 80.99111 Z m -3.540636,3.499374 -0.03161,0.192161 -0.03161,0.192163 -0.03161,0.245765 -0.03161,0.245765 -0.321561,0.329205 -0.321561,0.329203 5.751558,5.892299 5.75156,5.892298 0.247469,-0.253351 0.247964,-0.25335 h 0.454928 0.455422 v -0.196208 -0.196208 l -6.069664,-6.209871 z m -1.393929,1.678889 -0.348234,0.805058 -0.348236,0.80506 5.658697,5.797227 5.658203,5.797229 h 0.06866 0.06915 l 0.565574,-0.323642 0.565572,-0.323641 0.09386,-0.05309 0.09386,-0.05309 -5.909129,-6.225548 -5.909131,-6.225548 h -0.129414 z m -1.487779,1.424024 -0.100766,0.517826 -0.100765,0.517827 -3.263531,3.38711 -3.263531,3.387616 v 1.152467 1.152974 l 4.630786,4.716062 4.63128,4.716064 h 9.784171 9.784666 v -0.388369 -0.38837 h -8.278611 -8.27861 l 2.900477,-2.977502 2.899983,-2.977501 h 0.34132 0.341319 l -0.08447,-0.228573 -0.08397,-0.228066 -5.929877,-6.180035 z m 27.666168,18.73328 -0.42183,0.08345 -0.42184,0.08394 -0.1052,0.323641 -0.10522,0.323641 h 0.52705 0.52704 v -0.407586 z m -4.522611,0.03793 -0.134354,0.222504 -0.134849,0.223009 0.162015,0.165361 0.161522,0.165865 h 1.222528 1.222529 V 98.27945 97.89108 h -1.249696 z" /></g></svg>
