<?xml version="1.0" encoding="UTF-8" standalone="no"?>
<!-- Created with Inkscape (http://www.inkscape.org/) -->

<svg
   width="46.974998mm"
   height="46.974998mm"
   viewBox="0 0 46.974998 46.974998"
   version="1.1"
   id="svg5"
   xml:space="preserve"
   xmlns="http://www.w3.org/2000/svg"
   xmlns:svg="http://www.w3.org/2000/svg"><defs
     id="defs2" /><g
     id="layer1"
     transform="translate(-24.986852,-103.80829)"><path
       style="fill:#008000;stroke-width:0.225409"
       d="m 48.435543,150.35714 c -0.09227,0 -0.38681,-1.35407 -0.654544,-3.00905 -0.267733,-1.65499 -0.63738,-4.75148 -0.821445,-6.88113 -0.184064,-2.12962 -0.396129,-4.84797 -0.47126,-6.04075 -0.136599,-2.16869 -0.136599,-2.16869 -1.860182,-0.81879 -0.94797,0.74245 -2.445934,1.82768 -3.328815,2.41161 -0.882887,0.58395 -2.114012,1.35314 -2.735851,1.70933 -1.130619,0.64761 -1.130619,0.64761 -0.475878,-0.4667 0.360105,-0.61287 1.247944,-1.97024 1.972975,-3.0164 0.725033,-1.04615 1.827539,-2.50629 2.450013,-3.24475 1.131769,-1.34265 1.131769,-1.34265 -0.95589,-1.51253 -1.148212,-0.0934 -3.893718,-0.31661 -6.101122,-0.49598 -2.207397,-0.17936 -5.400316,-0.54403 -7.095363,-0.8104 -1.695038,-0.26634 -3.0819,-0.55868 -3.0819,-0.64962 0,-0.0909 1.386862,-0.38327 3.0819,-0.64963 1.695047,-0.26636 4.887966,-0.63104 7.095363,-0.8104 2.207404,-0.17937 4.95291,-0.40256 6.101122,-0.49597 2.087659,-0.16988 2.087659,-0.16988 0.95589,-1.51253 -0.622474,-0.73846 -1.72498,-2.19859 -2.450013,-3.24476 -0.725031,-1.04615 -1.61287,-2.40354 -1.972975,-3.0164 -0.654741,-1.11431 -0.654741,-1.11431 0.475878,-0.46901 0.621839,0.35491 1.99908,1.22994 3.060549,1.94451 1.061468,0.71459 2.542125,1.79921 3.290344,2.41029 0.748228,0.61107 1.382022,1.08975 1.408444,1.06371 0.02643,-0.0261 0.15898,-1.78984 0.294594,-3.91955 0.135614,-2.12972 0.395048,-5.14701 0.576529,-6.70511 0.181482,-1.55811 0.498971,-3.86507 0.705534,-5.12661 0.206557,-1.26155 0.447807,-2.29371 0.536103,-2.29371 0.0883,0 0.329546,1.03216 0.536101,2.29371 0.206565,1.26154 0.524055,3.5685 0.705535,5.12661 0.181481,1.5581 0.440917,4.57539 0.57653,6.70511 0.135613,2.12971 0.268179,3.89351 0.294593,3.91955 0.02643,0.0261 0.660217,-0.45264 1.408444,-1.06371 0.748228,-0.61108 2.228876,-1.69294 3.290345,-2.4041 1.061468,-0.71117 2.433895,-1.57809 3.049838,-1.92651 1.119901,-0.63344 1.119901,-0.63344 0.475879,0.46284 -0.35421,0.60296 -1.237226,1.95223 -1.962267,2.99838 -0.725032,1.04617 -1.825529,2.50545 -2.445558,3.24287 -0.62002,0.73744 -1.105705,1.36209 -1.079284,1.38814 0.02643,0.0261 1.816031,0.15668 3.976923,0.29033 2.160884,0.13366 5.222352,0.38936 6.803258,0.56822 1.580905,0.17887 3.921641,0.49177 5.201645,0.69536 1.280006,0.20357 2.32728,0.44135 2.32728,0.52837 0,0.087 -1.047274,0.32488 -2.32728,0.52859 -1.280004,0.20369 -3.655528,0.51917 -5.278947,0.70103 -1.623418,0.1819 -4.586439,0.43241 -6.584499,0.55674 -1.998051,0.12432 -3.761768,0.2264 -3.919375,0.22682 -0.157599,4.5e-4 0.337028,0.77417 1.099176,1.71941 0.762138,0.94525 1.87047,2.43057 2.462952,3.30071 0.592491,0.87014 1.372943,2.08351 1.734334,2.69638 0.657092,1.11431 0.657092,1.11431 -0.473525,0.46901 -0.621832,-0.3549 -1.999082,-1.22993 -3.06055,-1.94451 -1.061469,-0.71458 -2.542976,-1.80118 -3.29225,-2.41466 -1.36231,-1.11545 -1.36231,-1.11545 -1.534669,0.94208 -0.09479,1.13165 -0.321247,3.83755 -0.503235,6.0131 -0.181978,2.17558 -0.551994,5.32242 -0.82226,6.99301 -0.270256,1.67061 -0.566867,3.03745 -0.659134,3.03745 z"
       id="path802" /></g></svg>
