<?xml version="1.0" encoding="UTF-8" standalone="no"?>
<!-- Created with Inkscape (http://www.inkscape.org/) -->

<svg
   version="1.1"
   id="svg2"
   width="206.15662"
   height="206.15662"
   viewBox="-3 -3 211.1493 211.1493"
   sodipodi:docname="addnew_grey2.svg"
   inkscape:version="1.2.2 (732a01da63, 2022-12-09)"
   xmlns:inkscape="http://www.inkscape.org/namespaces/inkscape"
   xmlns:sodipodi="http://sodipodi.sourceforge.net/DTD/sodipodi-0.dtd"
   xmlns="http://www.w3.org/2000/svg"
   xmlns:svg="http://www.w3.org/2000/svg">
  <defs
     id="defs6" />
  <sodipodi:namedview
     id="namedview4"
     pagecolor="#ffffff"
     bordercolor="#000000"
     borderopacity="0.25"
     inkscape:showpageshadow="2"
     inkscape:pageopacity="0.0"
     inkscape:pagecheckerboard="0"
     inkscape:deskcolor="#d1d1d1"
     showgrid="false"
     inkscape:zoom="1.8185654"
     inkscape:cx="99.803944"
     inkscape:cy="116.57541"
     inkscape:window-width="1680"
     inkscape:window-height="987"
     inkscape:window-x="3832"
     inkscape:window-y="24"
     inkscape:window-maximized="1"
     inkscape:current-layer="g8" />
  <g
     inkscape:groupmode="layer"
     inkscape:label="Image"
     id="g8"
     transform="translate(-22.806564,-12.757842)">
    <rect
       style="fill:#ffffff;stroke:none;stroke-width:0.512109"
       id="rect352"
       width="210.63719"
       height="210.63719"
       x="20.062618"
       y="10.013897" />
    <path
       style="fill:#4d4d4d;stroke:#000000;stroke-width:0.5"
       d="m 60.861747,217.12015 c -13.07304,-3.51578 -25.68514,-13.42676 -31.83114,-25.0139 -5.82018,-10.97288 -6.28119,-14.54099 -6.28119,-48.61565 0,-29.45657 0.0866,-30.87651 2,-32.7899 2.52044,-2.52044 6.0916,-2.55565 9.13922,-0.0901 l 2.36078,1.90988 0.5,32.34011 0.5,32.34011 2.66041,5.67515 c 3.72289,7.94163 9.86973,14.22166 17.69156,18.07492 l 6.59713,3.24993 32.36556,0.5 32.365563,0.5 1.90989,2.36078 c 2.46968,3.05273 2.42415,6.21011 -0.12907,8.95066 -2.01607,2.164 -2.38918,2.18782 -33.249993,2.12275 -23.93974,-0.0505 -32.46623,-0.40337 -36.59872,-1.51474 z m 14.62214,-28.48516 c -9.43534,-2.27892 -16.49327,-8.06437 -20.65146,-16.9282 l -2.58301,-5.50609 v -50.5 -50.500004 l 2.58301,-5.50609 c 3.27691,-6.98525 7.92565,-11.63399 14.91091,-14.9109 l 5.50608,-2.58301 h 50.500003 50.5 l 5.50609,2.58301 c 6.98525,3.27691 11.63399,7.92565 14.9109,14.9109 l 2.58301,5.50609 v 50.500004 50.5 l -2.58301,5.50609 c -3.27691,6.98525 -7.92565,11.63399 -14.9109,14.9109 l -5.50609,2.58301 -48.5,0.17189 c -26.675,0.0945 -50.194493,-0.23738 -52.265533,-0.7376 z M 177.71404,173.16532 c 1.90553,-1.11947 4.38053,-3.59447 5.5,-5.5 1.97157,-3.35601 2.03538,-4.98503 2.03538,-51.96462 0,-46.979594 -0.0638,-48.608614 -2.03538,-51.964624 -1.11947,-1.90553 -3.59447,-4.38053 -5.5,-5.5 -3.35601,-1.97157 -4.98503,-2.03538 -51.96462,-2.03538 -46.979593,0 -48.608613,0.0638 -51.964613,2.03538 -1.90554,1.11947 -4.38054,3.59447 -5.5,5.5 -1.95573,3.32903 -2.04665,5.27479 -2.3232,49.717354 -0.30181,48.50295 -0.0498,52.01573 4.07206,56.77228 4.59089,5.29773 6.21062,5.44495 57.215753,5.20037 45.25496,-0.21701 47.12864,-0.30095 50.46462,-2.26076 z M 120.74942,142.7007 c -1.7037,-1.7037 -2,-3.33333 -2,-11 v -9 h -8.81144 c -10.083923,0 -13.188563,-1.65699 -13.188563,-7.03896 0,-5.45477 2.81302,-6.96104 13.000003,-6.96104 h 9 v -9.000004 c 0,-10.18698 1.50627,-13 6.96104,-13 5.38197,0 7.03896,3.10463 7.03896,13.18856 v 8.811444 h 8.81144 c 10.05883,0 13.18856,1.66114 13.18856,7 0,5.33886 -3.12973,7 -13.18856,7 h -8.81144 v 8.81144 c 0,7.4853 -0.30687,9.14082 -2.03896,11 -2.57216,2.7609 -7.29922,2.85038 -9.96104,0.18856 z m 96.86078,-21.90989 -2.36078,-1.90989 -0.5,-32.365564 -0.5,-32.36556 -3.24993,-6.59713 c -3.85326,-7.82183 -10.13329,-13.96867 -18.07492,-17.69156 l -5.67515,-2.66041 -32.34011,-0.5 -32.34011,-0.5 -1.90989,-2.36078 c -2.46554,-3.04762 -2.43033,-6.61878 0.0901,-9.13922 1.91339,-1.91339 3.33333,-2 32.7899,-2 34.07466,0 37.64277,0.461 48.61565,6.28119 7.75128,4.1114 16.20186,12.56197 20.31326,20.31326 5.81909,10.9708 6.28119,14.54457 6.28119,48.57669 0,30.346334 -0.0288,30.777784 -2.18856,32.789904 -2.74055,2.55322 -5.89793,2.59875 -8.95066,0.12907 z"
       id="path239" />
  </g>
</svg>
