<?xml version="1.0" encoding="UTF-8" standalone="no"?>
<svg
   xmlns:dc="http://purl.org/dc/elements/1.1/"
   xmlns:cc="http://creativecommons.org/ns#"
   xmlns:rdf="http://www.w3.org/1999/02/22-rdf-syntax-ns#"
   xmlns:svg="http://www.w3.org/2000/svg"
   xmlns="http://www.w3.org/2000/svg"
   xmlns:sodipodi="http://sodipodi.sourceforge.net/DTD/sodipodi-0.dtd"
   xmlns:inkscape="http://www.inkscape.org/namespaces/inkscape"
   width="50"
   height="20"
   version="1.1"
   viewBox="0 0 37.499999 15"
   id="svg4"
   sodipodi:docname="delete_onhover.svg"
   inkscape:version="0.92.4 (5da689c313, 2019-01-14)">
  <metadata
     id="metadata10">
    <rdf:RDF>
      <cc:Work
         rdf:about="">
        <dc:format>image/svg+xml</dc:format>
        <dc:type
           rdf:resource="http://purl.org/dc/dcmitype/StillImage" />
        <dc:title></dc:title>
      </cc:Work>
    </rdf:RDF>
  </metadata>
  <defs
     id="defs8" />
  <sodipodi:namedview
     pagecolor="#ffffff"
     bordercolor="#666666"
     borderopacity="1"
     objecttolerance="10"
     gridtolerance="10"
     guidetolerance="10"
     inkscape:pageopacity="0"
     inkscape:pageshadow="2"
     inkscape:window-width="1680"
     inkscape:window-height="987"
     id="namedview6"
     showgrid="false"
     fit-margin-top="0"
     fit-margin-left="0"
     fit-margin-right="0"
     fit-margin-bottom="0"
     inkscape:zoom="16.182857"
     inkscape:cx="32.32933"
     inkscape:cy="10.833296"
     inkscape:window-x="1912"
     inkscape:window-y="137"
     inkscape:window-maximized="1"
     inkscape:current-layer="svg4"
     inkscape:pagecheckerboard="false"
     inkscape:showpageshadow="false"
     units="px" />
  <path
     d="M 28.971877,0.35039259 C 25.431188,0.8512095 22.366746,2.2667345 19.864419,3.9123102 17.107344,1.8757596 14.706831,0.76550113 14.706831,0.76550113 c -1.151464,-0.59265445 -2.592302,-0.42884133 -3.70251,0 -1.1112357,0.42805437 -1.1112357,1.77307577 0,1.95664067 2.436057,0.7872395 4.577335,1.8301561 6.448095,2.9701974 -3.309684,2.7202812 -5.141508,5.4215758 -5.141508,5.4215758 -0.716589,0.951049 -0.518257,2.141107 0,3.058076 0.519214,0.917821 2.147779,0.917821 2.370027,0 1.296083,-2.734522 3.156545,-5.022573 5.119267,-6.9034226 5.684465,4.1895296 8.109126,8.7715576 7.938745,7.2586256 -0.764452,-3.687948 -3.287784,-6.7491342 -5.912664,-9.0414231 4.53697,-3.679754 8.780728,-5.2613512 7.145354,-5.13560401 z"
     id="path2"
     style="fill:#666666;stroke:#000000;stroke-width:0.04663977"
     inkscape:connector-curvature="0" />
</svg>
